<svg data-v-0dd9719b="" version="1.0" xmlns="http://www.w3.org/2000/svg" xmlns:xlink="http://www.w3.org/1999/xlink" width="100%" height="100%" viewBox="0 0 340.000000 250.000000" preserveAspectRatio="xMidYMid meet" color-interpolation-filters="sRGB" style="margin: auto;"> <rect data-v-0dd9719b="" x="0" y="0" width="100%" height="100%" fill="#fff" fill-opacity="1" class="background"></rect> <rect data-v-0dd9719b="" x="0" y="0" width="100%" height="100%" fill="url(#watermark)" fill-opacity="1" class="watermarklayer"></rect> <g data-v-0dd9719b="" fill="#f05a29" class="icon-text-wrapper icon-svg-group iconsvg" transform="translate(48.904998779296875,95)"><g class="iconsvg-imagesvg" transform="translate(0,0)"><g><rect fill="#f05a29" fill-opacity="0" stroke-width="2" x="0" y="0" width="60" height="60" class="image-rect"></rect> <svg x="0" y="0" width="60" height="60" filtersec="colorsb7724955966" class="image-svg-svg primary" style="overflow: visible;"><svg xmlns="http://www.w3.org/2000/svg" viewBox="0 0 108.47999572753906 108.47999572753906"><g><path d="M80.84 0H0v80.84a27.72 27.72 0 0 0 27.64 27.64h53.2a27.72 27.72 0 0 0 27.64-27.64v-53.2A27.72 27.72 0 0 0 80.84 0zm7.7 77.19a9.33 9.33 0 0 1-18.67 0V63.57H38.61v13.62a9.33 9.33 0 0 1-18.67 0v-45.9a9.33 9.33 0 0 1 18.67 0v13.62h31.26V31.29a9.33 9.33 0 0 1 18.67 0z" fill="#f05a29"></path></g></svg></svg> <!----></g></g> <g transform="translate(67,2.8287525177001953)"><g data-gra="path-name" fill-rule="" class="tp-name iconsvg-namesvg" transform="translate(0,0)"><g transform="scale(1)"><g><path d="M7.25-30.06L7.79-34.78 15.52-30.38 14.94-25.61 7.25-30.06ZM17.19-33.16L42.43-33.16 41.94-28.98 39.64-28.98 36.59-0.45Q36.36 1.53 35.55 2.38 34.74 3.24 32.94 3.24L32.94 3.24Q32.17 3.24 31.23 3.1L31.23 3.1Q29.47 2.88 27.68 2.43L27.68 2.43Q25.29 1.84 24.07 1.4L24.07 1.4 24.48-2.75Q27.63-1.75 31.14-1.08L31.14-1.08Q31.32-1.03 31.63-1.03L31.63-1.03Q31.95-1.03 32.09-1.21 32.22-1.4 32.31-1.8L32.31-1.8 35.1-28.98 16.7-28.98 17.19-33.16ZM5-20.84L5.63-25.56 13.23-21.02 12.69-16.29 5-20.84ZM30.6-20.61L29.07-7.33 15.25-7.33 16.92-21.06Q17.14-23.13 18.04-24.03 18.95-24.93 20.93-24.93L20.93-24.93 27-24.93Q30.64-24.93 30.64-21.46L30.64-21.46Q30.64-20.88 30.6-20.61L30.6-20.61ZM20.88-21.24L19.66-11.03 25.56-11.03 26.64-21.24 20.88-21.24ZM8.73-13L13.23-13 11.7-8.78Q9.9-3.73 8.59-0.58L8.59-0.58Q7.51 1.98 7.06 2.88L7.06 2.88 2.38 2.88Q6.34-6.25 8.73-13L8.73-13ZM87.3-31.68L86.81-27.72 70.69-27.72 70.33-24.61 81.72-24.61Q83.43-24.61 84.35-23.76 85.28-22.9 85.28-21.29L85.28-21.29Q85.28-20.79 85.23-20.52L85.23-20.52 82.75-1.44Q82.39 1.13 81.47 2.16 80.55 3.19 78.48 3.19L78.48 3.19Q75.69 3.19 72.45 2.52L72.45 2.52 72.77-1.71Q73.66-1.44 75.38-1.17L75.38-1.17Q76.59-0.99 77.44-0.99L77.44-0.99Q77.98-1.03 78.19-1.28 78.39-1.53 78.48-2.29L78.48-2.29 80.69-20.65 56.34-20.65 53.5 2.97 49.09 2.97 51.93-20.61Q52.16-22.72 53.1-23.67 54.05-24.61 56.02-24.61L56.02-24.61 65.75-24.61 66.15-27.72 51.12-27.72 51.57-31.68 66.73-31.68 67.28-35.55 71.64-35.55 71.14-31.68 87.3-31.68ZM76.86-5.13L68.67-5.13 67.91 1.84 63.67 1.84 64.44-5.13 56.25-5.13 56.66-8.73 64.8-8.73 65.16-11.92 57.6-11.92 58.05-15.39 61.78-15.39 60.8-19.53 64.58-19.53 65.56-15.39 70.2-15.39 71.69-19.53 75.73-19.53 74.07-15.39 77.53-15.39 77.13-11.92 69.39-11.92 69.03-8.73 77.27-8.73 76.86-5.13ZM110.79-26.01L109.13-11.74 103.41-11.74 102.56-4.68 105.89-5.49 105.44-9.72 108.77-9.72 109.8-1.26 111.51-1.26 114.75-28.04Q115.02-30.11 115.83-30.96 116.64-31.81 118.48-31.95L118.48-31.95Q123.34-32.35 131.53-34.47L131.53-34.47 131.13-30.2Q127.31-29.34 124.47-28.78 121.63-28.21 118.89-27.9L118.89-27.9 118.03-20.88 131.76-20.88 131.31-17.01 127.35-17.01 125.41-1.26 131.31-1.26 130.86 2.52 109.08 2.52 109.39-0.09 106.47-0.09 106.25-1.93Q102.51-0.9 99.27-0.22L99.27-0.22Q94.86 0.67 92.2 1.08L92.2 1.08 92.66-2.7 98.64-3.82 99.63-11.74 93.78-11.74 95.63-26.41Q95.81-27.77 96.64-28.55 97.47-29.34 98.82-29.34L98.82-29.34 101.83-29.34 102.56-35.19 106.29-35.19 105.57-29.34 108.18-29.34Q109.35-29.34 110.09-28.55 110.84-27.77 110.84-26.59L110.84-26.59Q110.84-26.19 110.79-26.01L110.79-26.01ZM100.08-15.52L101.34-25.56 99.18-25.56 97.97-15.52 100.08-15.52ZM105.12-25.56L103.86-15.52 105.97-15.52 107.19-25.56 105.12-25.56ZM121.41-1.26L123.34-17.01 117.54-17.01 115.61-1.26 121.41-1.26ZM146.29-29.52L147.01-35.59 150.75-35.59 150.03-29.52 152.01-29.52Q153.36-29.52 154.26-28.53L154.26-28.53Q154.71-28.04 154.91-27.4 155.12-26.77 155.03-26.1L155.03-26.1 153.41-12.06 148-12.06 147.19-5.08 150.57-5.85 150.07-10.35 153.27-10.35 154.66 0.63 151.34 0.63 150.97-2.29Q148.72-1.67 144.27-0.81L144.27-0.81Q141.12-0.22 137.29 0.32L137.29 0.32 137.84-3.51Q140.72-3.87 143.37-4.37L143.37-4.37 144.27-12.06 138.91-12.06 140.63-26.46Q140.81-27.81 141.77-28.66 142.74-29.52 144.04-29.52L144.04-29.52 146.29-29.52ZM169.6 3.38L173.56-35.05 177.57-35.05 173.61 3.38 169.6 3.38ZM163.31-11.16L158.4-11.16Q156.91-11.21 156.28-11.81 155.66-12.42 155.66-13.72L155.66-13.72Q155.66-13.99 155.75-14.89L155.75-14.89 156.74-21.38Q157-22.63 157.79-23.27 158.58-23.89 159.66-23.89L159.66-23.89 164.12-23.89 164.84-29.74 157.5-29.74 157.95-33.66 166-33.66Q167.4-33.66 168.21-32.74 169.02-31.81 168.84-30.24L168.84-30.24 167.67-20.16 160.6-20.16 159.79-14.85 164.2-14.85Q166.23-14.85 166.91-14.02 167.58-13.18 167.4-11.03L167.4-11.03Q167.35-9.58 166.77-5.58L166.77-5.58 165.78 0.32Q165.51 1.62 164.63 2.34 163.75 3.06 162.54 3.06L162.54 3.06Q162.13 3.06 161.91 3.01L161.91 3.01Q160.06 2.75 158.35 2.38L158.35 2.38Q156.87 2.07 155.75 1.62L155.75 1.62 156.24-2.29Q158.9-1.44 160.74-1.17L160.74-1.17Q161.55-1.03 161.8-1.46 162.04-1.89 162.16-2.61 162.27-3.33 162.31-3.69L162.31-3.69Q162.68-5.8 163.08-9.18L163.08-9.18Q163.08-9.31 163.31-11.16L163.31-11.16ZM144.68-15.66L145.89-25.96 143.82-25.96 142.65-15.66 144.68-15.66ZM149.63-25.96L148.41-15.66 150.57-15.66 151.78-25.96 149.63-25.96Z" transform="translate(-2.380000114440918, 35.59000015258789)"></path></g> <!----> <!----> <!----> <!----> <!----> <!----> <!----></g></g> <g data-gra="path-slogan" fill-rule="" class="tp-slogan iconsvg-slogansvg" fill="#f05a29" transform="translate(5,44.970001220703125)"><rect x="0" height="1" y="4.185000419616699" width="37.31500244140625"></rect> <rect height="1" y="4.185000419616699" width="37.31500244140625" x="127.875"></rect> <g transform="translate(40.31500244140625,0)"><g transform="scale(1)"><path d="M2.06-5.06L6.56-5.06L6.56-8.58L7.73-8.58L7.73 0L6.56 0L6.56-3.98L2.06-3.98L2.06 0L0.89 0L0.89-8.58L2.06-8.58L2.06-5.06ZM10.83-1.03L15.98-1.03L15.98 0L9.66 0L9.66-8.58L15.89-8.58L15.89-7.59L10.83-7.59L10.83-4.92L15.52-4.92L15.52-3.89L10.83-3.89L10.83-1.03ZM18.89-8.58L23.20-1.64L23.20-8.58L24.33-8.58L24.33 0L23.02 0L18.66-6.94L18.61-6.94L18.61 0L17.48 0L17.48-8.58L18.89-8.58ZM31.78 0L30.94-2.48L27.47-2.48L26.58 0L25.41 0L28.64-8.58L29.95-8.58L33.05 0L31.78 0ZM29.20-7.31L27.84-3.52L30.52-3.52L29.25-7.31L29.20-7.31ZM35.48-8.58L39.80-1.64L39.80-8.58L40.92-8.58L40.92 0L39.61 0L35.25-6.94L35.20-6.94L35.20 0L34.08 0L34.08-8.58L35.48-8.58ZM51.05-1.08L50.16-1.78L50.77-2.48L51.84-1.64Q52.83-2.63 52.83-4.27L52.83-4.27Q52.64-7.64 49.83-7.83L49.83-7.83Q46.97-7.69 46.83-4.27L46.83-4.27Q46.97-0.94 49.83-0.80L49.83-0.80Q50.53-0.80 51.05-1.08L51.05-1.08ZM52.78-0.94L53.91-0.05L53.34 0.56L52.03-0.33Q51.19 0.14 49.83 0.14L49.83 0.14Q45.89 0 45.61-4.27L45.61-4.27Q45.84-8.72 49.83-8.81L49.83-8.81Q53.72-8.67 54-4.27L54-4.27Q53.95-2.20 52.78-0.94L52.78-0.94ZM55.55-8.58L56.72-8.58L56.72 0L55.55 0L55.55-8.58ZM64.36-3.19L64.36-8.58L65.53-8.58L65.53-3.05Q65.39 0.05 62.02 0.14L62.02 0.14Q58.88 0.05 58.73-2.86L58.73-2.86L58.73-8.58L59.91-8.58L59.91-3.19Q59.95-0.84 62.06-0.80L62.06-0.80Q64.36-0.84 64.36-3.19L64.36-3.19ZM74.25-8.58L71.02-3.47L71.02 0L69.84 0L69.84-3.47L66.61-8.58L67.97-8.58L70.41-4.45L72.89-8.58L74.25-8.58ZM75.47-8.58L76.64-8.58L76.64 0L75.47 0L75.47-8.58ZM80.02-8.58L84.33-1.64L84.33-8.58L85.45-8.58L85.45 0L84.14 0L79.78-6.94L79.73-6.94L79.73 0L78.61 0L78.61-8.58L80.02-8.58Z" transform="translate(-0.890625, 8.8125)"></path></g></g></g></g></g><defs v-gra="od"></defs></svg>